<svg xmlns="http://www.w3.org/2000/svg" width="16" height="16" fill="none" viewBox="0 0 16 16"><path fill="#0a0b0d" d="M12.667 0H3.333A3.334 3.334 0 0 0 0 3.333v9.334A3.334 3.334 0 0 0 3.333 16h9.334A3.333 3.333 0 0 0 16 12.667V3.333A3.333 3.333 0 0 0 12.667 0M5.333 12.667h-2V5.333h2zm-1-8.179a1.17 1.17 0 0 1-1.166-1.176c0-.65.522-1.176 1.166-1.176S5.5 2.663 5.5 3.312c0 .65-.522 1.176-1.167 1.176m9 8.179h-2V8.93c0-2.246-2.666-2.076-2.666 0v3.736h-2V5.333h2V6.51c.93-1.724 4.666-1.851 4.666 1.65z"/></svg>